<?xml version="1.0" encoding="UTF-8" standalone="no"?>
<!-- Created with Inkscape (http://www.inkscape.org/) -->

<svg
   width="166.38197mm"
   height="67.73333mm"
   viewBox="0 0 166.38197 67.73333"
   version="1.1"
   id="svg1"
   xml:space="preserve"
   inkscape:version="1.4.2 (f4327f4, 2025-05-13)"
   sodipodi:docname="genkai-logo.svg"
   xmlns:inkscape="http://www.inkscape.org/namespaces/inkscape"
   xmlns:sodipodi="http://sodipodi.sourceforge.net/DTD/sodipodi-0.dtd"
   xmlns="http://www.w3.org/2000/svg"
   xmlns:svg="http://www.w3.org/2000/svg"><sodipodi:namedview
     id="namedview1"
     pagecolor="#ffffff"
     bordercolor="#000000"
     borderopacity="0.25"
     inkscape:showpageshadow="2"
     inkscape:pageopacity="0.0"
     inkscape:pagecheckerboard="0"
     inkscape:deskcolor="#d1d1d1"
     inkscape:document-units="mm"
     inkscape:zoom="1.0179639"
     inkscape:cx="279.47946"
     inkscape:cy="210.22356"
     inkscape:window-width="1920"
     inkscape:window-height="1010"
     inkscape:window-x="-6"
     inkscape:window-y="-6"
     inkscape:window-maximized="1"
     inkscape:current-layer="layer1" /><defs
     id="defs1" /><g
     inkscape:label="Layer 1"
     inkscape:groupmode="layer"
     id="layer1"
     transform="translate(-62.770641,-18.753214)"><g
       id="g4"
       transform="matrix(0.94377837,0,0,0.94466195,1.5654891,0.48559545)"><path
         style="fill:#99d4f8;fill-opacity:1;stroke:none;stroke-width:2.07931;stroke-opacity:1"
         d="m 64.895842,49.003379 c 0.22635,-1.581489 1.36569,-6.061604 1.92433,-7.566896 2.93697,-7.913756 8.91249,-14.802776 16.14985,-18.618721 5.67656,-2.993003 12.52736,-4.115419 19.123868,-3.133203 3.54368,0.527648 5.51659,1.144034 8.18165,2.556152 5.29051,2.803248 8.13002,6.783483 8.65738,12.135326 0.099,1.004613 0.11751,1.826567 0.0411,1.826567 -0.0764,0 -0.43114,-0.497086 -0.7884,-1.104635 -2.01541,-3.427412 -6.66928,-5.657776 -10.14545,-4.862195 -3.33911,0.764215 -5.37967,2.026161 -6.93747,4.290348 -1.328368,1.93072 -1.810488,3.655849 -1.810488,6.478403 0,1.509334 -0.10346,2.475677 -0.26507,2.475677 -0.1458,0 -0.74936,-0.30571 -1.34125,-0.679355 -1.70273,-1.074883 -4.19479,-2.113116 -6.92136,-2.883554 -2.2735,-0.642413 -2.92347,-0.71125 -6.6773,-0.707165 -3.81706,0.0042 -4.35076,0.06429 -6.49786,0.732163 -2.91915,0.908026 -5.25717,2.119207 -7.33273,3.798621 -1.7747,1.435975 -3.73593,3.712789 -4.51703,5.24389 -0.645,1.264291 -1.02329,1.272617 -0.84381,0.01857 z"
         id="path2" /><path
         style="fill:#3d82c5;fill-opacity:1;stroke:none;stroke-width:2.07931;stroke-opacity:1"
         d="m 66.706952,66.157721 c -1.7009,-3.292126 -2.00314,-7.806986 -0.77201,-11.532386 1.19863,-3.627069 3.72907,-6.881407 7.23896,-9.309848 2.49069,-1.723274 4.68537,-2.565093 8.00119,-3.069032 2.39737,-0.364355 3.13535,-0.379418 5.06832,-0.10345 3.20258,0.457224 5.33093,1.147535 7.687,2.493209 2.69103,1.536986 4.03856,2.603383 8.090938,6.402922 1.85839,1.742434 4.29729,3.855323 5.41979,4.695303 3.6837,2.756567 7.6444,4.309722 11.6231,4.557885 4.35611,0.271708 7.78258,-0.903547 10.573,-3.626472 1.39931,-1.365456 1.41321,-0.829752 0.0334,1.288026 -1.67731,2.574446 -4.99316,5.545119 -7.69482,6.893804 -3.41855,1.706562 -3.93143,1.823934 -8.3883,1.919679 -3.85264,0.08276 -6.20334,-0.185791 -7.92739,-0.905664 -2.37569,-0.991965 -4.26815,-1.936186 -6.416408,-3.201384 -7.46725,-4.397785 -12.40769,-5.824773 -17.84018,-5.152927 -6.15868,0.761653 -10.86225,3.578413 -13.35973,8.000547 -0.42386,0.750504 -0.81496,1.364552 -0.86912,1.364552 -0.0542,0 -0.26465,-0.321644 -0.46776,-0.714764 z"
         id="path3" /><path
         style="fill:#093973;fill-opacity:1;stroke:none;stroke-width:2.07931;stroke-opacity:1"
         d="m 96.563162,90.748762 c -7.50849,-0.949137 -14.66928,-4.364106 -20.34302,-9.701564 -7.63077,-7.178476 -8.4036,-12.353422 -2.52642,-16.917156 4.43073,-3.440536 10.8876,-4.378082 16.58137,-2.407635 1.8442,0.638226 4.20489,1.884768 7.09007,3.74386 5.491168,3.538283 9.477078,4.816649 15.052758,4.827733 9.98593,0.01984 17.81256,-5.860013 20.98789,-15.767442 0.83617,-2.608966 1.15205,-4.001772 1.35578,-5.978027 0.40849,-3.9624 0.52903,-3.997674 1.33225,-0.389872 0.69676,3.129571 0.70184,10.837397 0.009,14.165326 -0.97393,4.680434 -2.88901,9.051044 -5.76861,13.165119 -1.98114,2.830457 -6.97953,7.819901 -9.55335,9.536245 -7.24393,4.830606 -15.62049,6.810226 -24.218068,5.723413 z"
         id="path4" /></g><text
       xml:space="preserve"
       style="font-size:40.2949px;line-height:0;text-align:start;letter-spacing:5.82083px;writing-mode:lr-tb;direction:ltr;text-anchor:start;fill:#093973;stroke-width:5.03688"
       x="143.30611"
       y="67.952087"
       id="text1"><tspan
         sodipodi:role="line"
         id="tspan1"
         style="font-style:normal;font-variant:normal;font-weight:500;font-stretch:normal;font-family:'Noto Serif JP';-inkscape-font-specification:'Noto Serif JP Medium';letter-spacing:5.82083px;stroke-width:5.03688"
         x="143.30611"
         y="67.952087">玄海</tspan></text></g></svg>
